<svg version="1.1" viewBox="0.0 0.0 464.48293963254594 464.5590551181102" fill="none" stroke="none" stroke-linecap="square" stroke-miterlimit="10" xmlns:xlink="http://www.w3.org/1999/xlink" xmlns="http://www.w3.org/2000/svg"><clipPath id="p.0"><path d="m0 0l464.48294 0l0 464.55905l-464.48294 0l0 -464.55905z" clip-rule="nonzero"/></clipPath><g clip-path="url(#p.0)"><path fill="#000000" fill-opacity="0.0" d="m0 0l464.48294 0l0 464.55905l-464.48294 0z" fill-rule="evenodd"/><path fill="#ff5454" d="m0 49.274208l0 0c0 -27.213394 22.060814 -49.274208 49.274208 -49.274208l365.5146 0c13.068329 0 25.60141 5.191375 34.842133 14.432081c9.240692 9.240707 14.432068 21.773794 14.432068 34.842125l0 365.5146c0 27.213379 -22.060822 49.2742 -49.2742 49.2742l-365.5146 0c-27.213394 0 -49.274208 -22.060822 -49.274208 -49.2742z" fill-rule="evenodd"/><path fill="#ffffff" d="m202.58267 5.2493436E-7l58.897644 0l0 464.063l-58.897644 0z" fill-rule="evenodd"/><path fill="#ffffff" d="m300.97556 313.6288l41.637787 41.637787l-98.39369 98.39371l-41.637787 -41.637787z" fill-rule="evenodd"/><path fill="#ffffff" d="m85.367676 53.519314l41.637802 -41.637794l134.45668 134.4567l-41.637787 41.637802z" fill-rule="evenodd"/><path fill="#ffffff" d="m122.56692 262.727l41.637794 -41.637787l97.25986 97.25986l-41.637802 41.637787z" fill-rule="evenodd"/><path fill="#ffffff" d="m327.27527 100.81912l41.637787 41.637787l-124.6929 124.69293l-41.637787 -41.637802z" fill-rule="evenodd"/></g></svg>